<?xml version="1.0" encoding="UTF-8" standalone="no"?><svg xmlns="http://www.w3.org/2000/svg" xmlns:xlink="http://www.w3.org/1999/xlink"><symbol viewBox="0 0 136 225" id="aeropress"><g fill="currentColor" fill-rule="evenodd"><path d="M126.5 152h-7.4c.5-4.2.8-7.8.9-10.5.2-3-2.2-5.5-5.1-5.5h9.1c2.2 0 4-1.8 4-4s-1.8-4-4-4H96V52c0-4.4-3.6-8-8-8V8h12.8c1.7 0 3.2-1.4 3.2-3.2V4c0-2.2-1.8-4-4-4H27.2C25.5 0 24 1.4 24 3.2v1.7c0 1.7 1.4 3.2 3.2 3.2H40v36c-4.4 0-8 3.6-8 8v76H4c-2.2 0-4 1.8-4 4s1.8 4 4 4h9.1c-2.9 0-5.3 2.5-5.1 5.5 1.1 19.2 8.2 82.5 56 82.5 26.5 0 40.5-19.4 47.9-40h9.9c.2 0 7.1 0 9.4-4.6 2.3-4.6 4.7-13.8 4.7-18.3s-4.9-9.2-9.4-9.2zM48 8h32v36H48V8zm-8 44h48v76H40V52zm24 164c-17.2 0-29.7-9.6-38.2-29.2-6.7-15.6-8.9-33.4-9.6-42.8h95.6c-.7 9.3-2.9 27.2-9.6 42.8-8.5 19.6-21 29.2-38.2 29.2zm60.2-40.5c-.5.3-1.6.5-2.4.5H115l3.8-16h7.6c.5.1 1.3.8 1.5 1.3-.1 3-1.9 10.3-3.7 14.2z"/><path d="M100.5 166.5v-.8c0-1.6-1.9-2.9-4.1-3.5-.2-.1-.5-.1-.7-.2-1.2-.3-2.4-.4-3.5-.2l-9.6 1.1c-.6.1-1.3.1-1.9 0L64 161l-16.5-1.9c-.6-.1-1.3-.1-1.9 0l-11.7 1.3c-2.8.3-6.6 2-6.6 4h-.1c1.4 6.3 3.3 13 6 19.2C42.7 205.5 55.3 208 64 208s21.4-2.1 30.8-24c2.5-5.8 4.4-11.5 5.7-17.5z"/></g></symbol><symbol viewBox="0 0 200 176" id="americano"><g fill="currentColor" fill-rule="evenodd"><path d="M184 56h-8.8c.2-2.8.4-5.4.5-7.6.3-4.6-3.4-8.4-8-8.4H8.3c-4.6 0-8.2 3.9-8 8.4C2 78.1 13.1 176 88 176c42.4 0 64.4-31.4 75.7-64H176c.4 0 12.1-.1 16-8 3.9-8.1 8-24.1 8-32 0-7.9-8.2-16-16-16zm-56.1 98.1C116.8 163.3 103.4 168 88 168c-15.4 0-28.8-4.7-39.9-13.9-9.5-7.9-17.6-19.4-24-34C12.4 93.5 9.2 63.5 8.4 48h159.4c-.9 15.5-4.1 45.6-15.7 72.2-6.5 14.5-14.6 26-24.2 33.9zm56.9-53.6c-1.3 2.6-6.6 3.5-8.8 3.5h-6.9l9.3-40h5.6c3.4 0 8 4.6 8 8 0 6.6-3.8 21.5-7.2 28.5z"/><path d="M154.7 56H21.3c-2.4 0-4.2 2.1-4 4.4 1.7 15 5.4 37 14 56.5 1.7 4 3.6 7.7 5.6 11.1 12.4 21.5 29.2 32 51.1 32 21.9 0 38.7-10.5 51.1-32 2-3.4 3.8-7.1 5.6-11.1 8.6-19.5 12.3-41.5 14-56.5.2-2.3-1.7-4.4-4-4.4zm2 4.2c-1.6 14.9-5.4 36.6-13.9 55.9-1.5 3.5-3.2 6.8-4.9 9.9H38.1c-1.7-3.1-3.4-6.4-4.9-9.9-8.5-19.3-12.2-41-13.8-55.9-.1-.6.1-1.1.5-1.5.4-.4.9-.7 1.5-.7h133.5c.6 0 1 .2 1.4.7.3.4.5.9.4 1.5z"/><path d="M143.1 79.5s-1.7-.6-4.6-1.3c-1.5-.4-3.3-.8-5.4-1.2-2.1-.4-4.5-.8-7.1-1.2-2.6-.3-5.5-.6-8.5-.7-3-.2-6.2-.1-9.5.1s-6.7.5-10.1.9c-3.4.5-6.9 1-10.4 1.7-3.3.7-6.7 1.3-10 1.7-3.3.5-6.6.9-9.8 1.1-1.6.1-3.1.2-4.7.3-.8 0-1.6 0-2.3.1h-2.2c-2.9 0-5.7-.1-8.3-.2-2.6-.1-4.9-.3-7-.4-2.1-.1-3.9-.3-5.4-.4-3-.3-4.7-.4-4.7-.4-.2 0-.4.1-.5.3-.1.3 0 .5.3.6 0 0 1.7.6 4.6 1.3 1.5.4 3.3.8 5.4 1.2 2.1.4 4.5.8 7.1 1.2 2.6.3 5.5.6 8.5.7.8 0 1.5.1 2.3.1h2.3c1.6 0 3.2-.1 4.9-.2 3.3-.2 6.7-.4 10.1-.9 3.4-.5 6.9-1 10.4-1.7 3.3-.7 6.7-1.3 10-1.7 3.3-.5 6.6-.9 9.8-1.1 3.2-.3 6.2-.4 9.2-.4 2.9 0 5.7.1 8.2.2 2.6.1 4.9.3 7 .4 2.1.1 3.9.3 5.4.4 3 .3 4.7.4 4.7.4.2 0 .4-.1.5-.3.2-.2.1-.5-.2-.6zM135.1 91.5s-1.4-.6-3.9-1.3c-1.3-.4-2.8-.8-4.6-1.2-1.8-.4-3.8-.8-6.1-1.2-2.2-.3-4.7-.6-7.3-.8-2.6-.2-5.4-.1-8.2.1-2.8.2-5.8.5-8.7.9-3 .5-5.9 1-8.9 1.7-2.7.7-5.7 1.3-8.5 1.7-2.8.5-5.6.9-8.3 1.1-1.4.1-2.7.2-4 .3-.7 0-1.3 0-2 .1h-1.9c-2.5 0-4.9-.1-7-.2-2.2-.1-4.2-.3-6-.4-1.8-.1-3.3-.3-4.6-.4-2.6-.3-4-.4-4-.4-.2 0-.4.1-.5.3-.1.3 0 .6.3.7 0 0 1.4.6 3.9 1.3 1.3.4 2.8.8 4.6 1.2 1.8.4 3.8.8 6.1 1.2 2.2.3 4.7.6 7.3.7.7 0 1.3.1 2 .1h2c1.4 0 2.8-.1 4.2-.2 2.8-.2 5.8-.4 8.7-.9 3-.5 5.9-1 8.9-1.7 2.7-.7 5.7-1.3 8.5-1.7 2.8-.5 5.6-.9 8.3-1.1 2.7-.3 5.3-.4 7.8-.4 1.3 0 2.4 0 3.6.1 1.2 0 2.3.1 3.4.1 2.2.1 4.2.3 6 .4 1.8.1 3.3.3 4.6.4 2.6.3 4 .4 4 .4.2 0 .4-.1.5-.3.2-.2.1-.5-.2-.6zM127.1 103.5s-1.1-.6-3.2-1.3c-1-.4-2.3-.8-3.8-1.2-1.5-.4-3.2-.8-5-1.2-1.9-.3-3.9-.6-6.1-.8-2.2-.2-4.5-.1-6.9.1-2.4.2-4.8.5-7.3.9-2.5.5-4.9 1-7.4 1.7-2.2.7-4.6 1.2-6.9 1.7-2.3.5-4.6.9-6.9 1.1-1.1.1-2.2.2-3.2.3-.6 0-1.1 0-1.7.1h-1.5c-2 0-4-.1-5.8-.2-1.8-.1-3.5-.3-5-.4-1.5-.1-2.8-.3-3.8-.4-2.1-.3-3.4-.4-3.4-.4-.2 0-.4.1-.5.3-.1.3 0 .6.2.7 0 0 1.1.6 3.2 1.3 1 .4 2.3.8 3.8 1.2 1.5.4 3.2.8 5 1.2 1.9.3 3.9.6 6.1.8.6 0 1.1.1 1.7.1h1.7c1.2 0 2.4-.1 3.6-.2 2.4-.2 4.8-.5 7.3-.9 2.5-.5 4.9-1 7.4-1.7 2.2-.7 4.6-1.2 6.9-1.7 2.3-.5 4.6-.9 6.9-1.1 2.2-.3 4.4-.4 6.4-.4 1 0 2 0 3 .1 1 0 1.9.1 2.8.1 3.6.2 6.7.6 8.8.9 2.1.3 3.4.4 3.4.4.2 0 .4-.1.5-.3.1-.4 0-.7-.3-.8zM76 22c0 .2 0 .5.1.7.1.5.1 1 .2 1.5.2.9.4 1.7.6 2.5.5 1.5 1 2.7 1.4 3.5.2.4.4.7.5.9.1.2.2.3.2.3.2.3.6.6 1 .5.5-.1.9-.6.8-1.2v-.1s-.1-.5-.2-1.3-.3-2-.5-3.4c-.1-.7-.2-1.4-.2-2.2V21.4c.1-.6.3-1.1.7-1.7.4-.6 1-1.2 1.7-2.2.3-.5.7-1 1-1.7.1-.3.2-.6.3-1 .1-.3.2-.7.2-1 0-.2.1-.4.1-.5v-1.2c0-.5-.1-1-.2-1.5-.3-2-.7-3.7-1.1-5.1-.4-1.5-.9-2.6-1.2-3.5-.3-.8-.5-1.3-.5-1.3-.2-.4-.6-.6-1-.6-.6.1-.9.6-.9 1.1 0 0 .1.5.2 1.3s.2 2.1.4 3.5.3 3.1.4 4.8v1.3c0 .1-.1 1-.1 1.1-.1.2-.2.5-.3.8-.1.3-.3.6-.5.9-.5.6-1.2 1.4-1.9 2.4-.7 1.1-1.1 2.5-1.1 3.7v.8l-.1.2zM84 21.8v.2c0 .2 0 .5.1.7.1.5.1 1 .2 1.5.2.9.4 1.7.6 2.5.5 1.5 1 2.7 1.4 3.5.2.4.4.7.5.9.1.2.2.3.2.3.2.3.6.6 1 .5.5-.1.9-.6.8-1.2v-.1s-.1-.5-.2-1.3-.3-2-.5-3.4c-.1-.7-.2-1.4-.2-2.2V21.4c.1-.6.3-1.1.7-1.7.4-.6 1-1.2 1.7-2.2.3-.5.7-1 1-1.7.1-.3.2-.6.3-1 .1-.3.2-.7.2-1 0-.2.1-.4.1-.5v-1.2c0-.5-.1-1-.2-1.5-.3-2-.7-3.7-1.1-5.1-.4-1.5-.9-2.6-1.2-3.5-.3-.8-.5-1.3-.5-1.3-.2-.4-.6-.6-1-.6-.6.1-.9.6-.9 1.1 0 0 .1.5.2 1.3s.2 2.1.4 3.5.3 3.1.4 4.8v1.3c0 .1-.1 1-.1 1.1-.1.2-.2.5-.3.8-.1.3-.3.6-.5.9-.5.6-1.2 1.4-1.9 2.4-.7 1.1-1.1 2.5-1.1 3.7v.5c-.1.2-.1.2-.1.3zM92 21.8v.2c0 .2 0 .5.1.7.1.5.1 1 .2 1.5.2.9.4 1.7.6 2.5.5 1.5 1 2.7 1.4 3.5.2.4.4.7.5.9.1.2.2.3.2.3.2.3.6.6 1 .5.5-.1.9-.6.8-1.2v-.1s-.1-.5-.2-1.3-.3-2-.5-3.4c-.1-.7-.2-1.4-.2-2.2V21.4c.1-.6.3-1.1.7-1.7.4-.6 1-1.2 1.7-2.2.3-.5.7-1 1-1.7.1-.3.2-.6.3-1 .1-.3.2-.7.2-1 0-.2.1-.4.1-.5v-1.2c0-.5-.1-1-.2-1.5-.3-2-.7-3.7-1.1-5.1-.4-1.5-.9-2.6-1.2-3.5-.3-.8-.5-1.3-.5-1.3-.2-.4-.6-.6-1-.6-.6.1-.9.6-.9 1.1 0 0 .1.5.2 1.3s.2 2.1.4 3.5.3 3.1.4 4.8v1.3c0 .1-.1 1-.1 1.1-.1.2-.2.5-.3.8-.1.3-.3.6-.5.9-.5.6-1.2 1.4-1.9 2.4-.7 1.1-1.1 2.5-1.1 3.7v.5c-.1.2-.1.2-.1.3z"/></g></symbol><symbol viewBox="0 0 160 215" id="coffee-grinder"><g fill="currentColor" fill-rule="evenodd"><path d="M80 31c4.4 0 8-3.6 8-8s-3.6-8-8-8-8 3.6-8 8 3.6 8 8 8zm0-12c2.2 0 4 1.8 4 4s-1.8 4-4 4-4-1.8-4-4 1.8-4 4-4zM156.4 103c2 0 3.6-1.6 3.6-3.6v-.8c0-2-1.6-3.6-3.6-3.6h-29.1C123.7 73.6 106 57 84 55.2V34.3c-1.3.4-2.6.7-4 .7s-2.7-.3-4-.7v20.9C54 57 36.3 73.6 32.7 95H3.6c-2 0-3.6 1.6-3.6 3.6v.8c0 2 1.6 3.6 3.6 3.6H12v104H3.6c-2 0-3.6 1.6-3.6 3.6v.8c0 2 1.6 3.6 3.6 3.6h152.8c2 0 3.6-1.6 3.6-3.6v-.8c0-2-1.6-3.6-3.6-3.6H148V103h8.4zM80 63c19.3 0 35.5 13.8 39.2 32H40.8C44.5 76.8 60.7 63 80 63zm60 144H20V103h120v104z"/><path d="M124 151H36c-2.2 0-4 1.8-4 4v40c0 2.2 1.8 4 4 4h88c2.2 0 4-1.8 4-4v-40c0-2.2-1.8-4-4-4zm-4 40H40v-32h80v32z"/><circle cx="80" cy="175" r="6"/><path d="M150 28c2.2 0 4-1.8 4-4s-1.8-4-4-4H91.6c.2 1 .4 2 .4 3 0 1.8-.4 3.5-1.1 5H150zM143.4 13c.4 1.8 2 3 3.9 3h5.8c1.8 0 3.4-1.2 3.9-3l2-8c.6-2.5-1.3-5-3.9-5h-9.8c-2.6 0-4.5 2.4-3.9 5l2 8z"/></g></symbol><symbol viewBox="0 0 224 224" id="espresso-machine"><g fill="currentColor" fill-rule="evenodd"><path d="M224 72V32c0-17.7-14.3-32-32-32H32C14.3 0 0 14.3 0 32v40c0 17.7 14.3 32 32 32h8.5c0 .3 0 .6.1 1l23.3 95H8c-4.4 0-8 3.6-8 8v12c0 2.2 1.8 4 4 4h216c2.2 0 4-1.8 4-4v-12c0-4.4-3.6-8-8-8h-55.9l23.8-95c.1-.3.1-.6.1-1h8c17.7 0 32-14.3 32-32zM8 72V32C8 18.8 18.8 8 32 8h160c13.2 0 24 10.8 24 24v40c0 13.2-10.8 24-24 24H32C18.8 96 8 85.2 8 72zm120 53.4l-10 .6c-3.3 0-6 2.7-6 6s2.7 6 6 6l10 .6v5.4H96v-24h32v5.4zm26 2.6c.7.3 2 2.4 2 4s-1.3 3.7-2 4l-35.7-2H118c-1.1 0-2-.9-2-2s.9-2 2-2h.2l35.8-2zm-26-16H82v-8h60v8h-14zm88 104H8v-8h208v8zm-63.9-17c-.1.3-.1.6-.1 1H72c0-.3 0-.6-.1-1l-23.3-95H74v12c0 2.2 1.8 4 4 4h10v24c0 4.4 3.6 8 8 8h32c4.4 0 8-3.6 8-8v-5l18 1c3.3 0 6-4.7 6-8s-2.7-8-6-8l-18 1v-5h10c2.2 0 4-1.8 4-4v-12h25.9l-23.8 95z"/><path d="M112 88c17.7 0 32-14.3 32-32s-14.3-32-32-32-32 14.3-32 32 14.3 32 32 32zm0-56c13.2 0 24 10.8 24 24s-10.8 24-24 24-24-10.8-24-24 10.8-24 24-24z"/><path d="M112 47c1.1 0 2-.9 2-2v-4c0-1.1-.9-2-2-2s-2 .9-2 2v4c0 1.1.9 2 2 2zM121 56c0 1.1.9 2 2 2h4c1.1 0 2-.9 2-2s-.9-2-2-2h-4c-1.1 0-2 .9-2 2zM97 58h4c1.1 0 2-.9 2-2s-.9-2-2-2h-4c-1.1 0-2 .9-2 2s.9 2 2 2zM102.6 49.5c.4.4.9.6 1.4.6.5 0 1-.2 1.4-.6.8-.8.8-2 0-2.8l-2.8-2.8c-.8-.8-2-.8-2.8 0-.8.8-.8 2 0 2.8l2.8 2.8zM121.4 62.5c-.8-.8-2-.8-2.8 0-.8.8-.8 2 0 2.8l2.8 2.8c.4.4.9.6 1.4.6.5 0 1-.2 1.4-.6.8-.8.8-2 0-2.8l-2.8-2.8zM102.6 62.5l-2.8 2.8c-.8.8-.8 2 0 2.8.4.4.9.6 1.4.6.5 0 1-.2 1.4-.6l2.8-2.8c.8-.8.8-2 0-2.8-.7-.7-2-.7-2.8 0zM112 60c2.2 0 4-1.8 4-4 0-.4-.1-.7-.1-1l8.3-8.3c.8-.8.8-2 0-2.8-.8-.8-2-.8-2.8 0l-8.3 8.3c-.3-.1-.7-.1-1-.1-2.2 0-4 1.8-4 4-.1 2.1 1.7 3.9 3.9 3.9zM164 64h8c2.2 0 4-1.8 4-4v-8c0-2.2-1.8-4-4-4h-8c-2.2 0-4 1.8-4 4v8c0 2.2 1.8 4 4 4zm0-8h8v4h-8v-4zM188 64h8c2.2 0 4-1.8 4-4v-8c0-2.2-1.8-4-4-4h-8c-2.2 0-4 1.8-4 4v8c0 2.2 1.8 4 4 4zm0-12h8v4h-8v-4zM112 154s-4 3.8-4 6 1.8 4 4 4 4-1.8 4-4-4-6-4-6zM125.5 191c1.4 0 6.9-.2 9.6-2.4l5-7.6c0-3.3-3.8-6-8-6h-1.5c.1-.9.3-1.7.4-2.5.3-2.4-1.6-4.5-4-4.5H97c-2.4 0-4.3 2.1-4 4.5 1.1 8.8 5.1 27.5 19 27.5 6.4 0 10.6-3.9 13.5-9zm6.6-12c1.7 0 3 .7 3.6 1.4l-3.5 5.4c-.9.5-2.4.8-4 1.1l3.5-7.8h.4v-.1zm-31.6 7c-.3-.7-.5-1.3-.8-2h24.6c-.2.7-.5 1.3-.8 2h-23zm26.5-14c0 2.8-.9 6.4-2 10H99c-1.1-3.6-1.7-7.2-2.1-10H127zm-15 24c-4.4 0-7.9-2.6-10.6-8h21.2c-2.7 5.4-6.2 8-10.6 8z"/></g></symbol><symbol viewBox="0 0 208 88" id="portafilter"><g fill="currentColor" fill-rule="evenodd"><path d="M204 0h-64c-2.2 0-4 1.8-4 4v4h-17.8c-1.7-2-4.3-3.2-7.2-2.9L89.1 8.9c-.8.1-1.5.1-2.3 0L72 6.4C50.4 3 28.5 3.2 8.6 7.4l-2.2.4c-3.7.7-6.4 4-6.4 7.8v9.8c0 3.8 2.7 7.1 6.4 7.8l1.9.4c21 4.1 42.5 4.4 63.4 1l15-2.5c.8-.1 1.5-.1 2.3 0l21.8 2.7c2.9.4 5.5-.8 7.2-2.9h17.9c.1.3.2.6.3.8l6.5 12.9c.7 1.4 2.1 2.2 3.6 2.2h14.9l2 8.7c.3 1.9 2 3.3 3.9 3.3h9.2c2 0 3.6-1.4 3.9-3.3l2-8.7h14.9c1.5 0 2.9-.9 3.6-2.2l6.5-12.9c.3-.6.4-1.2.4-1.8V4c.4-2.2-1.4-4-3.6-4zm-84 16h16v8h-16v-8zm53.4 36h-2.9l-.9-4h4.7l-.9 4zM200 30.1l-4.9 9.9H149l-4.9-9.9V8h56v22.1h-.1zM172 68s-8 7.6-8 12 3.6 8 8 8 8-3.6 8-8-8-12-8-12z"/></g></symbol></svg>