<?xml version="1.0" encoding="utf-8"?><svg xmlns="http://www.w3.org/2000/svg" xmlns:xlink="http://www.w3.org/1999/xlink"><symbol viewBox="0 0 256 256" id="aeropress"><path d="M190.5 168h-7.4c.5-4.2.8-7.8.9-10.5.2-3-2.2-5.5-5.1-5.5h9.1c2.2 0 4-1.8 4-4s-1.8-4-4-4h-28V68c0-4.4-3.6-8-8-8V24h12.8c1.7 0 3.2-1.4 3.2-3.2V20c0-2.2-1.8-4-4-4H91.2c-1.7 0-3.2 1.4-3.2 3.2v1.7c0 1.7 1.4 3.2 3.2 3.2H104v36c-4.4 0-8 3.6-8 8v76H68c-2.2 0-4 1.8-4 4s1.8 4 4 4h9.1c-2.9 0-5.3 2.5-5.1 5.5 1.1 19.2 8.2 82.5 56 82.5 26.5 0 40.5-19.4 47.9-40h9.9c.2 0 7.1 0 9.4-4.6 2.3-4.6 4.7-13.8 4.7-18.3s-4.9-9.2-9.4-9.2zM112 24h32v36h-32V24zm-8 44h48v76h-48V68zm24 164c-17.2 0-29.7-9.6-38.2-29.2-6.7-15.6-8.9-33.4-9.6-42.8h95.6c-.7 9.3-2.9 27.2-9.6 42.8-8.5 19.6-21 29.2-38.2 29.2zm60.2-40.5c-.5.3-1.6.5-2.4.5H179l3.8-16h7.6c.5.1 1.3.8 1.5 1.3-.1 3-1.9 10.3-3.7 14.2z"/><path d="M164.5 182.5v-.8c0-1.6-1.9-2.9-4.1-3.5-.2-.1-.5-.1-.7-.2-1.2-.3-2.4-.4-3.5-.2l-9.6 1.1c-.6.1-1.3.1-1.9 0L128 177l-16.5-1.9c-.6-.1-1.3-.1-1.9 0l-11.7 1.3c-2.8.3-6.6 2-6.6 4h-.1c1.4 6.3 3.3 13 6 19.2 9.5 21.9 22.1 24.4 30.8 24.4s21.4-2.1 30.8-24c2.5-5.8 4.4-11.5 5.7-17.5z"/></symbol><symbol id="americano" viewBox="0 0 256 256"><style>.st0,.st1{stroke-miterlimit:10}.st0{fill:none;stroke:red}.st1{stroke:url(#SVGID_1_)}</style><path d="M224 120h-8.8c.2-2.8.4-5.4.5-7.6.3-4.6-3.4-8.4-8-8.4H48.3c-4.6 0-8.2 3.9-8 8.4C42 142.1 53.1 240 128 240c42.4 0 64.4-31.4 75.7-64H216c.4 0 12.1-.1 16-8 3.9-8.1 8-24.1 8-32s-8.2-16-16-16zm-56.1 98.1c-11.1 9.2-24.5 13.9-39.9 13.9s-28.8-4.7-39.9-13.9c-9.5-7.9-17.6-19.4-24-34-11.7-26.6-14.9-56.6-15.7-72.1h159.4c-.9 15.5-4.1 45.6-15.7 72.2-6.5 14.5-14.6 26-24.2 33.9zm56.9-53.6c-1.3 2.6-6.6 3.5-8.8 3.5h-6.9l9.3-40h5.6c3.4 0 8 4.6 8 8 0 6.6-3.8 21.5-7.2 28.5z"/><path d="M194.7 120H61.3c-2.4 0-4.2 2.1-4 4.4 1.7 15 5.4 37 14 56.5 1.7 4 3.6 7.7 5.6 11.1 12.4 21.5 29.2 32 51.1 32s38.7-10.5 51.1-32c2-3.4 3.8-7.1 5.6-11.1 8.6-19.5 12.3-41.5 14-56.5.2-2.3-1.7-4.4-4-4.4zm2 4.2c-1.6 14.9-5.4 36.6-13.9 55.9-1.5 3.5-3.2 6.8-4.9 9.9H78.1c-1.7-3.1-3.4-6.4-4.9-9.9-8.5-19.3-12.2-41-13.8-55.9-.1-.6.1-1.1.5-1.5.4-.4.9-.7 1.5-.7h133.5c.6 0 1 .2 1.4.7.3.4.5.9.4 1.5z"/><path d="M183.1 143.5s-1.7-.6-4.6-1.3c-1.5-.4-3.3-.8-5.4-1.2-2.1-.4-4.5-.8-7.1-1.2-2.6-.3-5.5-.6-8.5-.7-3-.2-6.2-.1-9.5.1s-6.7.5-10.1.9c-3.4.5-6.9 1-10.4 1.7-3.3.7-6.7 1.3-10 1.7-3.3.5-6.6.9-9.8 1.1-1.6.1-3.1.2-4.7.3-.8 0-1.6 0-2.3.1h-2.2c-2.9 0-5.7-.1-8.3-.2-2.6-.1-4.9-.3-7-.4-2.1-.1-3.9-.3-5.4-.4-3-.3-4.7-.4-4.7-.4-.2 0-.4.1-.5.3-.1.3 0 .5.3.6 0 0 1.7.6 4.6 1.3 1.5.4 3.3.8 5.4 1.2 2.1.4 4.5.8 7.1 1.2 2.6.3 5.5.6 8.5.7.8 0 1.5.1 2.3.1h2.3c1.6 0 3.2-.1 4.9-.2 3.3-.2 6.7-.4 10.1-.9 3.4-.5 6.9-1 10.4-1.7 3.3-.7 6.7-1.3 10-1.7 3.3-.5 6.6-.9 9.8-1.1 3.2-.3 6.2-.4 9.2-.4 2.9 0 5.7.1 8.2.2 2.6.1 4.9.3 7 .4 2.1.1 3.9.3 5.4.4 3 .3 4.7.4 4.7.4.2 0 .4-.1.5-.3.2-.2.1-.5-.2-.6zM175.1 155.5s-1.4-.6-3.9-1.3c-1.3-.4-2.8-.8-4.6-1.2-1.8-.4-3.8-.8-6.1-1.2-2.2-.3-4.7-.6-7.3-.8-2.6-.2-5.4-.1-8.2.1-2.8.2-5.8.5-8.7.9-3 .5-5.9 1-8.9 1.7-2.7.7-5.7 1.3-8.5 1.7-2.8.5-5.6.9-8.3 1.1-1.4.1-2.7.2-4 .3-.7 0-1.3 0-2 .1h-1.9c-2.5 0-4.9-.1-7-.2-2.2-.1-4.2-.3-6-.4-1.8-.1-3.3-.3-4.6-.4-2.6-.3-4-.4-4-.4-.2 0-.4.1-.5.3-.1.3 0 .6.3.7 0 0 1.4.6 3.9 1.3 1.3.4 2.8.8 4.6 1.2 1.8.4 3.8.8 6.1 1.2 2.2.3 4.7.6 7.3.7.7 0 1.3.1 2 .1h2c1.4 0 2.8-.1 4.2-.2 2.8-.2 5.8-.4 8.7-.9 3-.5 5.9-1 8.9-1.7 2.7-.7 5.7-1.3 8.5-1.7 2.8-.5 5.6-.9 8.3-1.1 2.7-.3 5.3-.4 7.8-.4 1.3 0 2.4 0 3.6.1 1.2 0 2.3.1 3.4.1 2.2.1 4.2.3 6 .4 1.8.1 3.3.3 4.6.4 2.6.3 4 .4 4 .4.2 0 .4-.1.5-.3.2-.2.1-.5-.2-.6zM167.1 167.5s-1.1-.6-3.2-1.3c-1-.4-2.3-.8-3.8-1.2-1.5-.4-3.2-.8-5-1.2-1.9-.3-3.9-.6-6.1-.8-2.2-.2-4.5-.1-6.9.1-2.4.2-4.8.5-7.3.9-2.5.5-4.9 1-7.4 1.7-2.2.7-4.6 1.2-6.9 1.7-2.3.5-4.6.9-6.9 1.1-1.1.1-2.2.2-3.2.3-.6 0-1.1 0-1.7.1h-1.5c-2 0-4-.1-5.8-.2-1.8-.1-3.5-.3-5-.4-1.5-.1-2.8-.3-3.8-.4-2.1-.3-3.4-.4-3.4-.4-.2 0-.4.1-.5.3-.1.3 0 .6.2.7 0 0 1.1.6 3.2 1.3 1 .4 2.3.8 3.8 1.2 1.5.4 3.2.8 5 1.2 1.9.3 3.9.6 6.1.8.6 0 1.1.1 1.7.1h1.7c1.2 0 2.4-.1 3.6-.2 2.4-.2 4.8-.5 7.3-.9 2.5-.5 4.9-1 7.4-1.7 2.2-.7 4.6-1.2 6.9-1.7 2.3-.5 4.6-.9 6.9-1.1 2.2-.3 4.4-.4 6.4-.4 1 0 2 0 3 .1 1 0 1.9.1 2.8.1 3.6.2 6.7.6 8.8.9 2.1.3 3.4.4 3.4.4.2 0 .4-.1.5-.3.1-.4 0-.7-.3-.8zM116 86c0 .2 0 .5.1.7.1.5.1 1 .2 1.5.2.9.4 1.7.6 2.5.5 1.5 1 2.7 1.4 3.5.2.4.4.7.5.9.1.2.2.3.2.3.2.3.6.6 1 .5.5-.1.9-.6.8-1.2v-.1s-.1-.5-.2-1.3-.3-2-.5-3.4c-.1-.7-.2-1.4-.2-2.2v-1.1V85.7 85.4c.1-.6.3-1.1.7-1.7.4-.6 1-1.2 1.7-2.2.3-.5.7-1 1-1.7.1-.3.2-.6.3-1 .1-.3.2-.7.2-1 0-.2.1-.4.1-.5v-1.2c0-.5-.1-1-.2-1.5-.3-2-.7-3.7-1.1-5.1-.4-1.5-.9-2.6-1.2-3.5-.3-.8-.5-1.3-.5-1.3-.2-.4-.6-.6-1-.6-.6.1-.9.6-.9 1.1 0 0 .1.5.2 1.3s.2 2.1.4 3.5.3 3.1.4 4.8v1.3c0 .1-.1 1-.1 1.1-.1.2-.2.5-.3.8-.1.3-.3.6-.5.9-.5.6-1.2 1.4-1.9 2.4-.7 1.1-1.1 2.5-1.1 3.7v.8l-.1.2zM124 85.8v.2c0 .2 0 .5.1.7.1.5.1 1 .2 1.5.2.9.4 1.7.6 2.5.5 1.5 1 2.7 1.4 3.5.2.4.4.7.5.9.1.2.2.3.2.3.2.3.6.6 1 .5.5-.1.9-.6.8-1.2v-.1s-.1-.5-.2-1.3-.3-2-.5-3.4c-.1-.7-.2-1.4-.2-2.2v-1.1V85.7 85.4c.1-.6.3-1.1.7-1.7.4-.6 1-1.2 1.7-2.2.3-.5.7-1 1-1.7.1-.3.2-.6.3-1 .1-.3.2-.7.2-1 0-.2.1-.4.1-.5v-1.2c0-.5-.1-1-.2-1.5-.3-2-.7-3.7-1.1-5.1-.4-1.5-.9-2.6-1.2-3.5-.3-.8-.5-1.3-.5-1.3-.2-.4-.6-.6-1-.6-.6.1-.9.6-.9 1.1 0 0 .1.5.2 1.3s.2 2.1.4 3.5.3 3.1.4 4.8v1.3c0 .1-.1 1-.1 1.1-.1.2-.2.5-.3.8-.1.3-.3.6-.5.9-.5.6-1.2 1.4-1.9 2.4-.7 1.1-1.1 2.5-1.1 3.7v.5c-.1.2-.1.2-.1.3zM132 85.8v.2c0 .2 0 .5.1.7.1.5.1 1 .2 1.5.2.9.4 1.7.6 2.5.5 1.5 1 2.7 1.4 3.5.2.4.4.7.5.9.1.2.2.3.2.3.2.3.6.6 1 .5.5-.1.9-.6.8-1.2v-.1s-.1-.5-.2-1.3-.3-2-.5-3.4c-.1-.7-.2-1.4-.2-2.2v-1.1V85.7 85.4c.1-.6.3-1.1.7-1.7.4-.6 1-1.2 1.7-2.2.3-.5.7-1 1-1.7.1-.3.2-.6.3-1 .1-.3.2-.7.2-1 0-.2.1-.4.1-.5v-1.2c0-.5-.1-1-.2-1.5-.3-2-.7-3.7-1.1-5.1-.4-1.5-.9-2.6-1.2-3.5-.3-.8-.5-1.3-.5-1.3-.2-.4-.6-.6-1-.6-.6.1-.9.6-.9 1.1 0 0 .1.5.2 1.3s.2 2.1.4 3.5.3 3.1.4 4.8v1.3c0 .1-.1 1-.1 1.1-.1.2-.2.5-.3.8-.1.3-.3.6-.5.9-.5.6-1.2 1.4-1.9 2.4-.7 1.1-1.1 2.5-1.1 3.7v.5c-.1.2-.1.2-.1.3z"/></symbol><symbol id="coffee-grinder" viewBox="0 0 256 256"><style>.st0,.st1{stroke-miterlimit:10}.st0{fill:none;stroke:red}.st1{stroke:url(#SVGID_1_)}</style><path d="M128 56c4.4 0 8-3.6 8-8s-3.6-8-8-8-8 3.6-8 8 3.6 8 8 8zm0-12c2.2 0 4 1.8 4 4s-1.8 4-4 4-4-1.8-4-4 1.8-4 4-4zM204.4 128c2 0 3.6-1.6 3.6-3.6v-.8c0-2-1.6-3.6-3.6-3.6h-29.1C171.7 98.6 154 82 132 80.2V59.3c-1.3.4-2.6.7-4 .7s-2.7-.3-4-.7v20.9C102 82 84.3 98.6 80.7 120H51.6c-2 0-3.6 1.6-3.6 3.6v.8c0 2 1.6 3.6 3.6 3.6H60v104h-8.4c-2 0-3.6 1.6-3.6 3.6v.8c0 2 1.6 3.6 3.6 3.6h152.8c2 0 3.6-1.6 3.6-3.6v-.8c0-2-1.6-3.6-3.6-3.6H196V128h8.4zM128 88c19.3 0 35.5 13.8 39.2 32H88.8c3.7-18.2 19.9-32 39.2-32zm60 144H68V128h120v104z"/><path d="M172 176H84c-2.2 0-4 1.8-4 4v40c0 2.2 1.8 4 4 4h88c2.2 0 4-1.8 4-4v-40c0-2.2-1.8-4-4-4zm-4 40H88v-32h80v32z"/><circle cx="128" cy="200" r="6"/><path d="M198 53c2.2 0 4-1.8 4-4s-1.8-4-4-4h-58.4c.2 1 .4 2 .4 3 0 1.8-.4 3.5-1.1 5H198zM191.4 38c.4 1.8 2 3 3.9 3h5.8c1.8 0 3.4-1.2 3.9-3l2-8c.6-2.5-1.3-5-3.9-5h-9.8c-2.6 0-4.5 2.4-3.9 5l2 8z"/></symbol><symbol id="espresso-machine" viewBox="0 0 256 256"><style>.st0,.st1{stroke-miterlimit:10}.st0{fill:none;stroke:red}.st1{stroke:url(#SVGID_1_)}</style><path d="M240 88V48c0-17.7-14.3-32-32-32H48c-17.7 0-32 14.3-32 32v40c0 17.7 14.3 32 32 32h8.5c0 .3 0 .6.1 1l23.3 95H24c-4.4 0-8 3.6-8 8v12c0 2.2 1.8 4 4 4h216c2.2 0 4-1.8 4-4v-12c0-4.4-3.6-8-8-8h-55.9l23.8-95c.1-.3.1-.6.1-1h8c17.7 0 32-14.3 32-32zM24 88V48c0-13.2 10.8-24 24-24h160c13.2 0 24 10.8 24 24v40c0 13.2-10.8 24-24 24H48c-13.2 0-24-10.8-24-24zm120 53.4l-10 .6c-3.3 0-6 2.7-6 6s2.7 6 6 6l10 .6v5.4h-32v-24h32v5.4zm26 2.6c.7.3 2 2.4 2 4s-1.3 3.7-2 4l-35.7-2H134c-1.1 0-2-.9-2-2s.9-2 2-2h.2l35.8-2zm-26-16H98v-8h60v8h-14zm88 104H24v-8h208v8zm-63.9-17c-.1.3-.1.6-.1 1H88c0-.3 0-.6-.1-1l-23.3-95H90v12c0 2.2 1.8 4 4 4h10v24c0 4.4 3.6 8 8 8h32c4.4 0 8-3.6 8-8v-5l18 1c3.3 0 6-4.7 6-8s-2.7-8-6-8l-18 1v-5h10c2.2 0 4-1.8 4-4v-12h25.9l-23.8 95z"/><path d="M128 104c17.7 0 32-14.3 32-32s-14.3-32-32-32-32 14.3-32 32 14.3 32 32 32zm0-56c13.2 0 24 10.8 24 24s-10.8 24-24 24-24-10.8-24-24 10.8-24 24-24z"/><path d="M128 63c1.1 0 2-.9 2-2v-4c0-1.1-.9-2-2-2s-2 .9-2 2v4c0 1.1.9 2 2 2zM137 72c0 1.1.9 2 2 2h4c1.1 0 2-.9 2-2s-.9-2-2-2h-4c-1.1 0-2 .9-2 2zM113 74h4c1.1 0 2-.9 2-2s-.9-2-2-2h-4c-1.1 0-2 .9-2 2s.9 2 2 2zM118.6 65.5c.4.4.9.6 1.4.6s1-.2 1.4-.6c.8-.8.8-2 0-2.8l-2.8-2.8c-.8-.8-2-.8-2.8 0-.8.8-.8 2 0 2.8l2.8 2.8zM137.4 78.5c-.8-.8-2-.8-2.8 0-.8.8-.8 2 0 2.8l2.8 2.8c.4.4.9.6 1.4.6s1-.2 1.4-.6c.8-.8.8-2 0-2.8l-2.8-2.8zM118.6 78.5l-2.8 2.8c-.8.8-.8 2 0 2.8.4.4.9.6 1.4.6s1-.2 1.4-.6l2.8-2.8c.8-.8.8-2 0-2.8-.7-.7-2-.7-2.8 0zM128 76c2.2 0 4-1.8 4-4 0-.4-.1-.7-.1-1l8.3-8.3c.8-.8.8-2 0-2.8-.8-.8-2-.8-2.8 0l-8.3 8.3c-.3-.1-.7-.1-1-.1-2.2 0-4 1.8-4 4-.1 2.1 1.7 3.9 3.9 3.9zM180 80h8c2.2 0 4-1.8 4-4v-8c0-2.2-1.8-4-4-4h-8c-2.2 0-4 1.8-4 4v8c0 2.2 1.8 4 4 4zm0-8h8v4h-8v-4zM204 80h8c2.2 0 4-1.8 4-4v-8c0-2.2-1.8-4-4-4h-8c-2.2 0-4 1.8-4 4v8c0 2.2 1.8 4 4 4zm0-12h8v4h-8v-4zM128 170s-4 3.8-4 6 1.8 4 4 4 4-1.8 4-4-4-6-4-6zM141.5 207c1.4 0 6.9-.2 9.6-2.4l5-7.6c0-3.3-3.8-6-8-6h-1.5c.1-.9.3-1.7.4-2.5.3-2.4-1.6-4.5-4-4.5h-30c-2.4 0-4.3 2.1-4 4.5 1.1 8.8 5.1 27.5 19 27.5 6.4 0 10.6-3.9 13.5-9zm6.6-12c1.7 0 3 .7 3.6 1.4l-3.5 5.4c-.9.5-2.4.8-4 1.1l3.5-7.8h.4zm-31.6 7c-.3-.7-.5-1.3-.8-2h24.6c-.2.7-.5 1.3-.8 2h-23zm26.5-14c0 2.8-.9 6.4-2 10h-26c-1.1-3.6-1.7-7.2-2.1-10H143zm-15 24c-4.4 0-7.9-2.6-10.6-8h21.2c-2.7 5.4-6.2 8-10.6 8z"/></symbol><symbol id="portafilter" viewBox="0 0 256 256"><style>.st0,.st1{stroke-miterlimit:10}.st0{fill:none;stroke:red}.st1{stroke:url(#SVGID_1_)}</style><path d="M228 108h-64c-2.2 0-4 1.8-4 4v4h-17.8c-1.7-2-4.3-3.2-7.2-2.9l-21.9 3.8c-.8.1-1.5.1-2.3 0L96 114.4c-21.6-3.4-43.5-3.2-63.4 1l-2.2.4c-3.7.7-6.4 4-6.4 7.8v9.8c0 3.8 2.7 7.1 6.4 7.8l1.9.4c21 4.1 42.5 4.4 63.4 1l15-2.5c.8-.1 1.5-.1 2.3 0l21.8 2.7c2.9.4 5.5-.8 7.2-2.9h17.9c.1.3.2.6.3.8l6.5 12.9c.7 1.4 2.1 2.2 3.6 2.2h14.9l2 8.7c.3 1.9 2 3.3 3.9 3.3h9.2c2 0 3.6-1.4 3.9-3.3l2-8.7h14.9c1.5 0 2.9-.9 3.6-2.2l6.5-12.9c.3-.6.4-1.2.4-1.8V112c.4-2.2-1.4-4-3.6-4zm-84 16h16v8h-16v-8zm53.4 36h-2.9l-.9-4h4.7l-.9 4zm26.6-21.9l-4.9 9.9H173l-4.9-9.9V116h56v22.1zM196 176s-8 7.6-8 12 3.6 8 8 8 8-3.6 8-8-8-12-8-12z"/></symbol></svg>