<?xml version="1.0" encoding="UTF-8" standalone="no"?>
<svg width="136px" height="225px" viewBox="0 0 136 225" version="1.1" xmlns="http://www.w3.org/2000/svg" xmlns:xlink="http://www.w3.org/1999/xlink">
    <!-- Generator: Sketch 3.8.3 (29802) - http://www.bohemiancoding.com/sketch -->
    <title>aeropress</title>
    <desc>Created with Sketch.</desc>
    <defs></defs>
    <g id="Page-1" stroke="none" stroke-width="1" fill="none" fill-rule="evenodd">
        <g id="aeropress" fill="#000000">
            <g id="Group">
                <path d="M126.5,152 L119.1,152 C119.6,147.8 119.9,144.2 120,141.5 C120.2,138.5 117.8,136 114.9,136 L124,136 C126.2,136 128,134.2 128,132 C128,129.8 126.2,128 124,128 L96,128 L96,52 C96,47.6 92.4,44 88,44 L88,8 L100.8,8 C102.5,8 104,6.6 104,4.8 L104,4 C104,1.8 102.2,1.42108547e-14 100,1.42108547e-14 L88,1.42108547e-14 L40,1.42108547e-14 L27.2,1.42108547e-14 C25.5,1.42108547e-14 24,1.4 24,3.2 L24,4.9 C24,6.6 25.4,8.1 27.2,8.1 L40,8.1 L40,44.1 C35.6,44.1 32,47.7 32,52.1 L32,128.1 L4,128.1 C1.8,128.1 -1.42108547e-14,129.9 -1.42108547e-14,132.1 C-1.42108547e-14,134.3 1.8,136.1 4,136.1 L13.1,136.1 C10.2,136.1 7.8,138.6 8,141.6 C9.1,160.8 16.2,224.1 64,224.1 C90.5,224.1 104.5,204.7 111.9,184.1 L121.8,184.1 L121.8,184.1 C122,184.1 128.9,184.1 131.2,179.5 C133.5,174.9 135.9,165.7 135.9,161.2 C135.9,156.7 131,152 126.5,152 L126.5,152 Z M48,8 L80,8 L80,44 L48,44 L48,8 L48,8 Z M40,52 L88,52 L88,128 L40,128 L40,52 L40,52 Z M64,216 C46.8,216 34.3,206.4 25.8,186.8 C19.1,171.2 16.9,153.4 16.2,144 L111.8,144 C111.1,153.3 108.9,171.2 102.2,186.8 C93.7,206.4 81.2,216 64,216 L64,216 Z M124.2,175.5 C123.7,175.8 122.6,176 121.8,176 L115,176 L118.8,160 L126.4,160 C126.9,160.1 127.7,160.8 127.9,161.3 C127.8,164.3 126,171.6 124.2,175.5 L124.2,175.5 Z" id="Shape"></path>
                <path d="M100.5,166.5 L100.5,165.7 L100.5,165.7 L100.5,165.7 C100.5,164.1 98.6,162.8 96.4,162.2 C96.2,162.1 95.9,162.1 95.7,162 C94.5,161.7 93.3,161.6 92.2,161.8 L82.6,162.9 C82,163 81.3,163 80.7,162.9 L64,161 L47.5,159.1 C46.9,159 46.2,159 45.6,159.1 L33.9,160.4 C31.1,160.7 27.3,162.4 27.3,164.4 L27.3,164.4 L27.2,164.4 C28.6,170.7 30.5,177.4 33.2,183.6 C42.7,205.5 55.3,208 64,208 C72.7,208 85.4,205.9 94.8,184 C97.3,178.2 99.2,172.5 100.5,166.5 L100.5,166.5 L100.5,166.5 Z" id="Shape"></path>
            </g>
        </g>
    </g>
</svg>