<?xml version="1.0" encoding="UTF-8" standalone="no"?>
<svg width="200px" height="176px" viewBox="0 0 200 176" version="1.1" xmlns="http://www.w3.org/2000/svg" xmlns:xlink="http://www.w3.org/1999/xlink">
    <!-- Generator: Sketch 3.8.3 (29802) - http://www.bohemiancoding.com/sketch -->
    <title>americano</title>
    <desc>Created with Sketch.</desc>
    <defs></defs>
    <g id="Page-1" stroke="none" stroke-width="1" fill="none" fill-rule="evenodd">
        <g id="americano" fill="#000000">
            <g id="Group">
                <path d="M184,56 L175.2,56 C175.4,53.2 175.6,50.6 175.7,48.4 C176,43.8 172.3,40 167.7,40 L8.3,40 C3.7,40 0.1,43.9 0.3,48.4 C2,78.1 13.1,176 88,176 C130.4,176 152.4,144.6 163.7,112 L176,112 L176,112 C176.4,112 188.1,111.9 192,104 C195.9,95.9 200,79.9 200,72 C200,64.1 191.8,56 184,56 L184,56 Z M127.9,154.1 C116.8,163.3 103.4,168 88,168 C72.6,168 59.2,163.3 48.1,154.1 C38.6,146.2 30.5,134.7 24.1,120.1 C12.4,93.5 9.2,63.5 8.4,48 L167.8,48 L167.8,48 C166.9,63.5 163.7,93.6 152.1,120.2 C145.6,134.7 137.5,146.2 127.9,154.1 L127.9,154.1 Z M184.8,100.5 C183.5,103.1 178.2,104 176,104 L176,104 L169.1,104 L178.4,64 L184,64 C187.4,64 192,68.6 192,72 C192,78.6 188.2,93.5 184.8,100.5 L184.8,100.5 Z" id="Shape"></path>
                <path d="M154.7,56 L21.3,56 C18.9,56 17.1,58.1 17.3,60.4 C19,75.4 22.7,97.4 31.3,116.9 C33,120.9 34.9,124.6 36.9,128 C49.3,149.5 66.1,160 88,160 C109.9,160 126.7,149.5 139.1,128 C141.1,124.6 142.9,120.9 144.7,116.9 C153.3,97.4 157,75.4 158.7,60.4 C158.9,58.1 157,56 154.7,56 L154.7,56 Z M156.7,60.2 C155.1,75.1 151.3,96.8 142.8,116.1 C141.3,119.6 139.6,122.9 137.9,126 L38.1,126 C36.4,122.9 34.7,119.6 33.2,116.1 C24.7,96.8 21,75.1 19.4,60.2 C19.3,59.6 19.5,59.1 19.9,58.7 C20.3,58.3 20.8,58 21.4,58 L154.9,58 C155.5,58 155.9,58.2 156.3,58.7 C156.6,59.1 156.8,59.6 156.7,60.2 L156.7,60.2 Z" id="Shape"></path>
                <path d="M143.1,79.5 C143.1,79.5 141.4,78.9 138.5,78.2 C137,77.8 135.2,77.4 133.1,77 C131,76.6 128.6,76.2 126,75.8 C123.4,75.5 120.5,75.2 117.5,75.1 C114.5,74.9 111.3,75 108,75.2 C104.7,75.4 101.3,75.7 97.9,76.1 C94.5,76.6 91,77.1 87.5,77.8 C84.2,78.5 80.8,79.1 77.5,79.5 C74.2,80 70.9,80.4 67.7,80.6 C66.1,80.7 64.6,80.8 63,80.9 C62.2,80.9 61.4,80.9 60.7,81 L58.5,81 C55.6,81 52.8,80.9 50.2,80.8 C47.6,80.7 45.3,80.5 43.2,80.4 C41.1,80.3 39.3,80.1 37.8,80 C34.8,79.7 33.1,79.6 33.1,79.6 C32.9,79.6 32.7,79.7 32.6,79.9 C32.5,80.2 32.6,80.4 32.9,80.5 C32.9,80.5 34.6,81.1 37.5,81.8 C39,82.2 40.8,82.6 42.9,83 C45,83.4 47.4,83.8 50,84.2 C52.6,84.5 55.5,84.8 58.5,84.9 C59.3,84.9 60,85 60.8,85 L63.1,85 C64.7,85 66.3,84.9 68,84.8 C71.3,84.6 74.7,84.4 78.1,83.9 C81.5,83.4 85,82.9 88.5,82.2 C91.8,81.5 95.2,80.9 98.5,80.5 C101.8,80 105.1,79.6 108.3,79.4 C111.5,79.1 114.5,79 117.5,79 C120.4,79 123.2,79.1 125.7,79.2 C128.3,79.3 130.6,79.5 132.7,79.6 C134.8,79.7 136.6,79.9 138.1,80 C141.1,80.3 142.8,80.4 142.8,80.4 C143,80.4 143.2,80.3 143.3,80.1 C143.5,79.9 143.4,79.6 143.1,79.5 L143.1,79.5 Z" id="Shape"></path>
                <path d="M135.1,91.5 C135.1,91.5 133.7,90.9 131.2,90.2 C129.9,89.8 128.4,89.4 126.6,89 C124.8,88.6 122.8,88.2 120.5,87.8 C118.3,87.5 115.8,87.2 113.2,87 C110.6,86.8 107.8,86.9 105,87.1 C102.2,87.3 99.2,87.6 96.3,88 C93.3,88.5 90.4,89 87.4,89.7 C84.7,90.4 81.7,91 78.9,91.4 C76.1,91.9 73.3,92.3 70.6,92.5 C69.2,92.6 67.9,92.7 66.6,92.8 C65.9,92.8 65.3,92.8 64.6,92.9 L62.7,92.9 C60.2,92.9 57.8,92.8 55.7,92.7 C53.5,92.6 51.5,92.4 49.7,92.3 C47.9,92.2 46.4,92 45.1,91.9 C42.5,91.6 41.1,91.5 41.1,91.5 C40.9,91.5 40.7,91.6 40.6,91.8 C40.5,92.1 40.6,92.4 40.9,92.5 C40.9,92.5 42.3,93.1 44.8,93.8 C46.1,94.2 47.6,94.6 49.4,95 C51.2,95.4 53.2,95.8 55.5,96.2 C57.7,96.5 60.2,96.8 62.8,96.9 C63.5,96.9 64.1,97 64.8,97 L66.8,97 C68.2,97 69.6,96.9 71,96.8 C73.8,96.6 76.8,96.4 79.7,95.9 C82.7,95.4 85.6,94.9 88.6,94.2 C91.3,93.5 94.3,92.9 97.1,92.5 C99.9,92 102.7,91.6 105.4,91.4 C108.1,91.1 110.7,91 113.2,91 C114.5,91 115.6,91 116.8,91.1 C118,91.1 119.1,91.2 120.2,91.2 C122.4,91.3 124.4,91.5 126.2,91.6 C128,91.7 129.5,91.9 130.8,92 C133.4,92.3 134.8,92.4 134.8,92.4 C135,92.4 135.2,92.3 135.3,92.1 C135.5,91.9 135.4,91.6 135.1,91.5 L135.1,91.5 Z" id="Shape"></path>
                <path d="M127.1,103.5 C127.1,103.5 126,102.9 123.9,102.2 C122.9,101.8 121.6,101.4 120.1,101 C118.6,100.6 116.9,100.2 115.1,99.8 C113.2,99.5 111.2,99.2 109,99 C106.8,98.8 104.5,98.9 102.1,99.1 C99.7,99.3 97.3,99.6 94.8,100 C92.3,100.5 89.9,101 87.4,101.7 C85.2,102.4 82.8,102.9 80.5,103.4 C78.2,103.9 75.9,104.3 73.6,104.5 C72.5,104.6 71.4,104.7 70.4,104.8 C69.8,104.8 69.3,104.8 68.7,104.9 L67.2,104.9 C65.2,104.9 63.2,104.8 61.4,104.7 C59.6,104.6 57.9,104.4 56.4,104.3 C54.9,104.2 53.6,104 52.6,103.9 C50.5,103.6 49.2,103.5 49.2,103.5 C49,103.5 48.8,103.6 48.7,103.8 C48.6,104.1 48.7,104.4 48.9,104.5 C48.9,104.5 50,105.1 52.1,105.8 C53.1,106.2 54.4,106.6 55.9,107 C57.4,107.4 59.1,107.8 60.9,108.2 C62.8,108.5 64.8,108.8 67,109 C67.6,109 68.1,109.1 68.7,109.1 L70.4,109.1 C71.6,109.1 72.8,109 74,108.9 C76.4,108.7 78.8,108.4 81.3,108 C83.8,107.5 86.2,107 88.7,106.3 C90.9,105.6 93.3,105.1 95.6,104.6 C97.9,104.1 100.2,103.7 102.5,103.5 C104.7,103.2 106.9,103.1 108.9,103.1 C109.9,103.1 110.9,103.1 111.9,103.2 C112.9,103.2 113.8,103.3 114.7,103.3 C118.3,103.5 121.4,103.9 123.5,104.2 C125.6,104.5 126.9,104.6 126.9,104.6 C127.1,104.6 127.3,104.5 127.4,104.3 C127.5,103.9 127.4,103.6 127.1,103.5 L127.1,103.5 Z" id="Shape"></path>
                <path d="M76,22 C76,22.2 76,22.5 76.1,22.7 C76.2,23.2 76.2,23.7 76.3,24.2 C76.5,25.1 76.7,25.9 76.9,26.7 C77.4,28.2 77.9,29.4 78.3,30.2 C78.5,30.6 78.7,30.9 78.8,31.1 C78.9,31.3 79,31.4 79,31.4 C79.2,31.7 79.6,32 80,31.9 C80.5,31.8 80.9,31.3 80.8,30.7 L80.8,30.6 C80.8,30.6 80.7,30.1 80.6,29.3 C80.5,28.5 80.3,27.3 80.1,25.9 C80,25.2 79.9,24.5 79.9,23.7 L79.9,22.6 L79.9,21.9 L79.9,21.7 L79.9,21.6 L79.9,21.4 C80,20.8 80.2,20.3 80.6,19.7 C81,19.1 81.6,18.5 82.3,17.5 C82.6,17 83,16.5 83.3,15.8 C83.4,15.5 83.5,15.2 83.6,14.8 C83.7,14.5 83.8,14.1 83.8,13.8 C83.8,13.6 83.9,13.4 83.9,13.3 L83.9,12.9 L83.9,12.5 L83.9,12.4 L83.9,12.4 L83.9,12.4 L83.9,12.3 L83.9,12.1 C83.9,11.6 83.8,11.1 83.7,10.6 C83.4,8.6 83,6.9 82.6,5.5 C82.2,4 81.7,2.9 81.4,2 C81.1,1.2 80.9,0.7 80.9,0.7 L80.9,0.7 C80.7,0.3 80.3,0.1 79.9,0.1 C79.3,0.2 79,0.7 79,1.2 C79,1.2 79.1,1.7 79.2,2.5 C79.3,3.3 79.4,4.6 79.6,6 C79.8,7.4 79.9,9.1 80,10.8 L80,12.1 C80,12.2 79.9,13.1 79.9,13.2 C79.8,13.4 79.7,13.7 79.6,14 C79.5,14.3 79.3,14.6 79.1,14.9 C78.6,15.5 77.9,16.3 77.2,17.3 C76.5,18.4 76.1,19.8 76.1,21 L76.1,21.5 L76.1,21.8 L76,22 L76,22 Z" id="Shape"></path>
                <path d="M84,21.8 L84,22 C84,22.2 84,22.5 84.1,22.7 C84.2,23.2 84.2,23.7 84.3,24.2 C84.5,25.1 84.7,25.9 84.9,26.7 C85.4,28.2 85.9,29.4 86.3,30.2 C86.5,30.6 86.7,30.9 86.8,31.1 C86.9,31.3 87,31.4 87,31.4 C87.2,31.7 87.6,32 88,31.9 C88.5,31.8 88.9,31.3 88.8,30.7 L88.8,30.6 C88.8,30.6 88.7,30.1 88.6,29.3 C88.5,28.5 88.3,27.3 88.1,25.9 C88,25.2 87.9,24.5 87.9,23.7 L87.9,22.6 L87.9,21.9 L87.9,21.7 L87.9,21.6 L87.9,21.4 C88,20.8 88.2,20.3 88.6,19.7 C89,19.1 89.6,18.5 90.3,17.5 C90.6,17 91,16.5 91.3,15.8 C91.4,15.5 91.5,15.2 91.6,14.8 C91.7,14.5 91.8,14.1 91.8,13.8 C91.8,13.6 91.9,13.4 91.9,13.3 L91.9,12.9 L91.9,12.5 L91.9,12.4 L91.9,12.4 L91.9,12.4 L91.9,12.3 L91.9,12.1 C91.9,11.6 91.8,11.1 91.7,10.6 C91.4,8.6 91,6.9 90.6,5.5 C90.2,4 89.7,2.9 89.4,2 C89.1,1.2 88.9,0.7 88.9,0.7 L88.9,0.7 C88.7,0.3 88.3,0.1 87.9,0.1 C87.3,0.2 87,0.7 87,1.2 C87,1.2 87.1,1.7 87.2,2.5 C87.3,3.3 87.4,4.6 87.6,6 C87.8,7.4 87.9,9.1 88,10.8 L88,12.1 C88,12.2 87.9,13.1 87.9,13.2 C87.8,13.4 87.7,13.7 87.6,14 C87.5,14.3 87.3,14.6 87.1,14.9 C86.6,15.5 85.9,16.3 85.2,17.3 C84.5,18.4 84.1,19.8 84.1,21 L84.1,21.5 C84,21.7 84,21.7 84,21.8 L84,21.8 Z" id="Shape"></path>
                <path d="M92,21.8 L92,22 C92,22.2 92,22.5 92.1,22.7 C92.2,23.2 92.2,23.7 92.3,24.2 C92.5,25.1 92.7,25.9 92.9,26.7 C93.4,28.2 93.9,29.4 94.3,30.2 C94.5,30.6 94.7,30.9 94.8,31.1 C94.9,31.3 95,31.4 95,31.4 C95.2,31.7 95.6,32 96,31.9 C96.5,31.8 96.9,31.3 96.8,30.7 L96.8,30.6 C96.8,30.6 96.7,30.1 96.6,29.3 C96.5,28.5 96.3,27.3 96.1,25.9 C96,25.2 95.9,24.5 95.9,23.7 L95.9,22.6 L95.9,21.9 L95.9,21.7 L95.9,21.6 L95.9,21.4 C96,20.8 96.2,20.3 96.6,19.7 C97,19.1 97.6,18.5 98.3,17.5 C98.6,17 99,16.5 99.3,15.8 C99.4,15.5 99.5,15.2 99.6,14.8 C99.7,14.5 99.8,14.1 99.8,13.8 C99.8,13.6 99.9,13.4 99.9,13.3 L99.9,12.9 L99.9,12.5 L99.9,12.4 L99.9,12.4 L99.9,12.4 L99.9,12.3 L99.9,12.1 C99.9,11.6 99.8,11.1 99.7,10.6 C99.4,8.6 99,6.9 98.6,5.5 C98.2,4 97.7,2.9 97.4,2 C97.1,1.2 96.9,0.7 96.9,0.7 L96.9,0.7 C96.7,0.3 96.3,0.1 95.9,0.1 C95.3,0.2 95,0.7 95,1.2 C95,1.2 95.1,1.7 95.2,2.5 C95.3,3.3 95.4,4.6 95.6,6 C95.8,7.4 95.9,9.1 96,10.8 L96,12.1 C96,12.2 95.9,13.1 95.9,13.2 C95.8,13.4 95.7,13.7 95.6,14 C95.5,14.3 95.3,14.6 95.1,14.9 C94.6,15.5 93.9,16.3 93.2,17.3 C92.5,18.4 92.1,19.8 92.1,21 L92.1,21.5 C92,21.7 92,21.7 92,21.8 L92,21.8 Z" id="Shape"></path>
            </g>
        </g>
    </g>
</svg>