<?xml version="1.0" encoding="UTF-8" standalone="no"?>
<svg width="160px" height="215px" viewBox="0 0 160 215" version="1.1" xmlns="http://www.w3.org/2000/svg" xmlns:xlink="http://www.w3.org/1999/xlink">
    <!-- Generator: Sketch 3.8.3 (29802) - http://www.bohemiancoding.com/sketch -->
    <title>coffee-grinder</title>
    <desc>Created with Sketch.</desc>
    <defs></defs>
    <g id="Page-1" stroke="none" stroke-width="1" fill="none" fill-rule="evenodd">
        <g id="coffee-grinder" fill="#000000">
            <g id="Group">
                <path d="M80,31 C84.4,31 88,27.4 88,23 C88,18.6 84.4,15 80,15 C75.6,15 72,18.6 72,23 C72,27.4 75.6,31 80,31 L80,31 Z M80,19 C82.2,19 84,20.8 84,23 C84,25.2 82.2,27 80,27 C77.8,27 76,25.2 76,23 C76,20.8 77.8,19 80,19 L80,19 Z" id="Shape"></path>
                <path d="M156.4,103 C158.4,103 160,101.4 160,99.4 L160,98.6 C160,96.6 158.4,95 156.4,95 L148,95 L127.3,95 C123.7,73.6 106,57 84,55.2 L84,34.3 C82.7,34.7 81.4,35 80,35 C78.6,35 77.3,34.7 76,34.3 L76,55.2 C54,57 36.3,73.6 32.7,95 L12,95 L3.6,95 C1.6,95 0,96.6 0,98.6 L0,99.4 C0,101.4 1.6,103 3.6,103 L12,103 L12,207 L3.6,207 C1.6,207 0,208.6 0,210.6 L0,211.4 C0,213.4 1.6,215 3.6,215 L12,215 L148,215 L156.4,215 C158.4,215 160,213.4 160,211.4 L160,210.6 C160,208.6 158.4,207 156.4,207 L148,207 L148,103 L156.4,103 L156.4,103 Z M80,63 C99.3,63 115.5,76.8 119.2,95 L40.8,95 C44.5,76.8 60.7,63 80,63 L80,63 Z M140,207 L20,207 L20,103 L140,103 L140,207 L140,207 Z" id="Shape"></path>
                <path d="M124,151 L36,151 C33.8,151 32,152.8 32,155 L32,195 C32,197.2 33.8,199 36,199 L124,199 C126.2,199 128,197.2 128,195 L128,155 C128,152.8 126.2,151 124,151 L124,151 Z M120,191 L40,191 L40,159 L120,159 L120,191 L120,191 Z" id="Shape"></path>
                <circle id="Oval" cx="80" cy="175" r="6"></circle>
                <path d="M150,28 C152.2,28 154,26.2 154,24 C154,21.8 152.2,20 150,20 L91.6,20 C91.8,21 92,22 92,23 C92,24.8 91.6,26.5 90.9,28 L150,28 L150,28 Z" id="Shape"></path>
                <path d="M143.4,13 C143.8,14.8 145.4,16 147.3,16 L153.1,16 C154.9,16 156.5,14.8 157,13 L159,5 C159.6,2.5 157.7,0 155.1,0 L145.3,0 C142.7,0 140.8,2.4 141.4,5 L143.4,13 L143.4,13 Z" id="Shape"></path>
            </g>
        </g>
    </g>
</svg>