<?xml version="1.0" encoding="UTF-8" standalone="no"?>
<svg width="224px" height="224px" viewBox="0 0 224 224" version="1.1" xmlns="http://www.w3.org/2000/svg" xmlns:xlink="http://www.w3.org/1999/xlink">
    <!-- Generator: Sketch 3.8.3 (29802) - http://www.bohemiancoding.com/sketch -->
    <title>espresso-machine</title>
    <desc>Created with Sketch.</desc>
    <defs></defs>
    <g id="Page-1" stroke="none" stroke-width="1" fill="none" fill-rule="evenodd">
        <g id="espresso-machine" fill="#000000">
            <g id="Group">
                <path d="M224,72 L224,32 C224,14.3 209.7,0 192,0 L32,0 C14.3,0 0,14.3 0,32 L0,72 C0,89.7 14.3,104 32,104 L40.5,104 C40.5,104.3 40.5,104.6 40.6,105 L63.9,200 L8,200 C3.6,200 0,203.6 0,208 L0,220 C0,222.2 1.8,224 4,224 L220,224 C222.2,224 224,222.2 224,220 L224,208 C224,203.6 220.4,200 216,200 L160.1,200 L183.9,105 C184,104.7 184,104.4 184,104 L192,104 C209.7,104 224,89.7 224,72 L224,72 Z M8,72 L8,32 C8,18.8 18.8,8 32,8 L192,8 C205.2,8 216,18.8 216,32 L216,72 C216,85.2 205.2,96 192,96 L146,96 L78,96 L32,96 C18.8,96 8,85.2 8,72 L8,72 Z M128,125.4 L118,126 C114.7,126 112,128.7 112,132 C112,135.3 114.7,138 118,138 L128,138.6 L128,144 L96,144 L96,120 L128,120 L128,125.4 L128,125.4 Z M154,128 C154.7,128.3 156,130.4 156,132 C156,133.6 154.7,135.7 154,136 L118.3,134 L118.2,134 L118,134 C116.9,134 116,133.1 116,132 C116,130.9 116.9,130 118,130 L118.1,130 L118.2,130 L154,128 L154,128 Z M128,112 L96,112 L82,112 L82,104 L142,104 L142,112 L128,112 L128,112 Z M216,216 L8,216 L8,208 L216,208 L216,216 L216,216 Z M152.1,199 C152,199.3 152,199.6 152,200 L112,200 L72,200 C72,199.7 72,199.4 71.9,199 L48.6,104 L74,104 L74,116 C74,118.2 75.8,120 78,120 L88,120 L88,144 C88,148.4 91.6,152 96,152 L128,152 C132.4,152 136,148.4 136,144 L136,139 L154,140 C157.3,140 160,135.3 160,132 C160,128.7 157.3,124 154,124 L136,125 L136,120 L146,120 C148.2,120 150,118.2 150,116 L150,104 L175.9,104 L152.1,199 L152.1,199 Z" id="Shape"></path>
                <path d="M112,88 C129.7,88 144,73.7 144,56 C144,38.3 129.7,24 112,24 C94.3,24 80,38.3 80,56 C80,73.7 94.3,88 112,88 L112,88 Z M112,32 C125.2,32 136,42.8 136,56 C136,69.2 125.2,80 112,80 C98.8,80 88,69.2 88,56 C88,42.8 98.8,32 112,32 L112,32 Z" id="Shape"></path>
                <path d="M112,47 C113.1,47 114,46.1 114,45 L114,41 C114,39.9 113.1,39 112,39 C110.9,39 110,39.9 110,41 L110,45 C110,46.1 110.9,47 112,47 L112,47 Z" id="Shape"></path>
                <path d="M121,56 C121,57.1 121.9,58 123,58 L127,58 C128.1,58 129,57.1 129,56 C129,54.9 128.1,54 127,54 L123,54 C121.9,54 121,54.9 121,56 L121,56 Z" id="Shape"></path>
                <path d="M97,58 L101,58 C102.1,58 103,57.1 103,56 C103,54.9 102.1,54 101,54 L97,54 C95.9,54 95,54.9 95,56 C95,57.1 95.9,58 97,58 L97,58 Z" id="Shape"></path>
                <path d="M102.6,49.5 C103,49.9 103.5,50.1 104,50.1 C104.5,50.1 105,49.9 105.4,49.5 C106.2,48.7 106.2,47.5 105.4,46.7 L102.6,43.9 C101.8,43.1 100.6,43.1 99.8,43.9 C99,44.7 99,45.9 99.8,46.7 L102.6,49.5 L102.6,49.5 Z" id="Shape"></path>
                <path d="M121.4,62.5 C120.6,61.7 119.4,61.7 118.6,62.5 C117.8,63.3 117.8,64.5 118.6,65.3 L121.4,68.1 C121.8,68.5 122.3,68.7 122.8,68.7 C123.3,68.7 123.8,68.5 124.2,68.1 C125,67.3 125,66.1 124.2,65.3 L121.4,62.5 L121.4,62.5 Z" id="Shape"></path>
                <path d="M102.6,62.5 L99.8,65.3 C99,66.1 99,67.3 99.8,68.1 C100.2,68.5 100.7,68.7 101.2,68.7 C101.7,68.7 102.2,68.5 102.6,68.1 L105.4,65.3 C106.2,64.5 106.2,63.3 105.4,62.5 C104.7,61.8 103.4,61.8 102.6,62.5 L102.6,62.5 Z" id="Shape"></path>
                <path d="M112,60 C114.2,60 116,58.2 116,56 C116,55.6 115.9,55.3 115.9,55 L124.2,46.7 C125,45.9 125,44.7 124.2,43.9 C123.4,43.1 122.2,43.1 121.4,43.9 L113.1,52.2 C112.8,52.1 112.4,52.1 112.1,52.1 C109.9,52.1 108.1,53.9 108.1,56.1 C108,58.2 109.8,60 112,60 L112,60 Z" id="Shape"></path>
                <path d="M164,64 L172,64 C174.2,64 176,62.2 176,60 L176,52 C176,49.8 174.2,48 172,48 L164,48 C161.8,48 160,49.8 160,52 L160,60 C160,62.2 161.8,64 164,64 L164,64 Z M164,56 L172,56 L172,60 L164,60 L164,56 L164,56 Z" id="Shape"></path>
                <path d="M188,64 L196,64 C198.2,64 200,62.2 200,60 L200,52 C200,49.8 198.2,48 196,48 L188,48 C185.8,48 184,49.8 184,52 L184,60 C184,62.2 185.8,64 188,64 L188,64 Z M188,52 L196,52 L196,56 L188,56 L188,52 L188,52 Z" id="Shape"></path>
                <path d="M112,154 C112,154 108,157.8 108,160 C108,162.2 109.8,164 112,164 C114.2,164 116,162.2 116,160 C116,157.8 112,154 112,154 L112,154 Z" id="Shape"></path>
                <path d="M125.5,191 C126.9,191 132.4,190.8 135.1,188.6 L140.1,181 C140.1,177.7 136.3,175 132.1,175 L130.6,175 C130.7,174.1 130.9,173.3 131,172.5 C131.3,170.1 129.4,168 127,168 L97,168 C94.6,168 92.7,170.1 93,172.5 C94.1,181.3 98.1,200 112,200 C118.4,200 122.6,196.1 125.5,191 L125.5,191 Z M132.1,179 C133.8,179 135.1,179.7 135.7,180.4 L132.2,185.8 C131.3,186.3 129.8,186.6 128.2,186.9 L131.7,179.1 L132.1,179.1 L132.1,179 Z M100.5,186 C100.2,185.3 100,184.7 99.7,184 L124.3,184 C124.1,184.7 123.8,185.3 123.5,186 L100.5,186 L100.5,186 Z M127,172 L127,172 C127,174.8 126.1,178.4 125,182 L99,182 C97.9,178.4 97.3,174.8 96.9,172 L127,172 L127,172 Z M112,196 C107.6,196 104.1,193.4 101.4,188 L122.6,188 C119.9,193.4 116.4,196 112,196 L112,196 Z" id="Shape"></path>
            </g>
        </g>
    </g>
</svg>