<?xml version="1.0" encoding="UTF-8" standalone="no"?>
<svg width="208px" height="88px" viewBox="0 0 208 88" version="1.1" xmlns="http://www.w3.org/2000/svg" xmlns:xlink="http://www.w3.org/1999/xlink">
    <!-- Generator: Sketch 3.8.3 (29802) - http://www.bohemiancoding.com/sketch -->
    <title>portafilter</title>
    <desc>Created with Sketch.</desc>
    <defs></defs>
    <g id="Page-1" stroke="none" stroke-width="1" fill="none" fill-rule="evenodd">
        <g id="portafilter" fill="#000000">
            <g id="Group">
                <path d="M204,0 L140,0 C137.8,0 136,1.8 136,4 L136,8 L118.2,8 C116.5,6 113.9,4.8 111,5.1 L89.1,8.9 C88.3,9 87.6,9 86.8,8.9 L72,6.4 C50.4,3 28.5,3.2 8.6,7.4 L6.4,7.8 C2.7,8.5 0,11.8 0,15.6 L0,25.4 C0,29.2 2.7,32.5 6.4,33.2 L8.3,33.6 C29.3,37.7 50.8,38 71.7,34.6 L86.7,32.1 C87.5,32 88.2,32 89,32.1 L110.8,34.8 C113.7,35.2 116.3,34 118,31.9 L135.9,31.9 C136,32.2 136.1,32.5 136.2,32.7 L142.7,45.6 C143.4,47 144.8,47.8 146.3,47.8 L161.2,47.8 L163.2,56.5 C163.5,58.4 165.2,59.8 167.1,59.8 L176.3,59.8 C178.3,59.8 179.9,58.4 180.2,56.5 L182.2,47.8 L197.1,47.8 C198.6,47.8 200,46.9 200.7,45.6 L207.2,32.7 C207.5,32.1 207.6,31.5 207.6,30.9 L207.6,4 C208,1.8 206.2,0 204,0 L204,0 Z M120,16 L136,16 L136,24 L120,24 L120,16 L120,16 Z M173.4,52 L170.5,52 L169.6,48 L174.3,48 L173.4,52 L173.4,52 Z M200,30.1 L195.1,40 L149,40 L144.1,30.1 L144.1,8 L200.1,8 L200.1,30.1 L200,30.1 Z" id="Shape"></path>
                <path d="M172,68 C172,68 164,75.6 164,80 C164,84.4 167.6,88 172,88 C176.4,88 180,84.4 180,80 C180,75.6 172,68 172,68 L172,68 Z" id="Shape"></path>
            </g>
        </g>
    </g>
</svg>